<svg fill="currentColor" viewBox="0 0 512 512" xmlns="http://www.w3.org/2000/svg"><path d="M85.333 77.888v391.445C85.333 510.805 238.549 512 256 512s170.667-1.195 170.667-42.667V77.888c-28.48 19.093-85.44 28.779-170.667 28.779S113.835 96.981 85.333 77.888z"/><path d="M256 85.333c105.28 0 170.667-16.363 170.667-42.667 0-1.621-.405-3.115-1.067-4.48C415.872 5.141 301.653.661 265.493.085 262.336.064 259.243 0 256 0s-6.336.064-9.515.085C210.325.661 96.107 5.12 86.379 38.187c-.64 1.365-1.045 2.859-1.045 4.48C85.333 68.971 150.72 85.333 256 85.333z"/></svg>
