<svg fill="currentColor" viewBox="0 0 510.905 510.905" xmlns="http://www.w3.org/2000/svg"><path d="M199.412 116.494l-45.12-97.749L45.279 98.041a10.578 10.578 0 00-4.032 5.867L.692 255.993h109.035zM216.436 129.444l-87.808 136.597 107.541 136.875 156.288-68.374-9.749-165.994zM389.556 148.238l65.749-65.749L323.807 1.572C321.908.399 319.775-.092 317.45.015L173.897 10.276l45.163 97.856zM110.367 277.326H1.375L52.17 419.577a10.76 10.76 0 004.437 5.504L188.66 506.34l32.171-88.405zM241.332 423.929l-31.637 86.976 152.576-20.352a10.564 10.564 0 004.864-1.941l111.936-81.408-76.736-53.717zM509.663 220.622L469.087 98.873l-65.28 65.28 10.091 171.392 75.819 53.077 20.416-163.307a10.639 10.639 0 00-.47-4.693z"/></svg>
