<svg fill="currentColor" viewBox="0 0 512 512" xmlns="http://www.w3.org/2000/svg"><path d="M193.771 318.229C214.336 319.381 235.285 320 256 320c123.285 0 256-20.032 256-64C512 114.837 397.163 0 256 0c-43.989 0-64 132.693-64 256 0 20.715.619 41.664 1.771 62.229z"/><path d="M172.181 316.8a1235.032 1235.032 0 01-1.515-60.8c0-65.173 5.248-197.525 44.245-252.395C93.248 23.381 0 128.853 0 256c0 33.963 79.275 53.589 172.181 60.8zM195.2 339.819C202.389 432.725 222.016 512 256 512c127.147 0 232.619-93.269 252.395-214.912-54.869 38.997-187.2 44.245-252.395 44.245-16.64 0-37.76-.362-60.8-1.514zM3.605 297.088C21.184 405.312 106.666 490.795 214.89 508.373c-25.963-36.523-37.013-107.2-41.408-169.856-62.655-4.394-133.333-15.445-169.877-41.429z"/></svg>
